<svg width="45" height="45" viewBox="0 0 45 45" fill="none" xmlns="http://www.w3.org/2000/svg">
<path d="M11.25 11.25C11.25 9.01224 12.1389 6.86612 13.7213 5.28379C15.3036 3.70145 17.4497 2.8125 19.6875 2.8125C21.9253 2.8125 24.0714 3.70145 25.6537 5.28379C27.236 6.86612 28.125 9.01224 28.125 11.25C28.125 11.623 27.9768 11.9806 27.7131 12.2444C27.4494 12.5081 27.0917 12.6562 26.7187 12.6562C26.3458 12.6562 25.9881 12.5081 25.7244 12.2444C25.4606 11.9806 25.3125 11.623 25.3125 11.25C25.3125 9.75816 24.7199 8.32742 23.665 7.27252C22.6101 6.21763 21.1793 5.625 19.6875 5.625C18.1956 5.625 16.7649 6.21763 15.71 7.27252C14.6551 8.32742 14.0625 9.75816 14.0625 11.25C14.0625 11.623 13.9143 11.9806 13.6506 12.2444C13.3869 12.5081 13.0292 12.6562 12.6562 12.6562C12.2833 12.6562 11.9256 12.5081 11.6619 12.2444C11.3981 11.9806 11.25 11.623 11.25 11.25ZM36.4271 21.0938C34.9137 21.1641 33.75 22.4684 33.75 23.9818V25.2615C33.7549 25.6244 33.6222 25.9757 33.3786 26.2448C33.135 26.5138 32.7985 26.6807 32.4369 26.7117C32.2445 26.7245 32.0516 26.6976 31.8701 26.6326C31.6886 26.5677 31.5224 26.4662 31.3817 26.3343C31.2411 26.2024 31.1291 26.043 31.0527 25.866C30.9763 25.6891 30.9371 25.4982 30.9375 25.3055V21.1729C30.9375 19.6594 29.7738 18.3604 28.2603 18.2848C27.8801 18.2664 27.5 18.3255 27.1433 18.4584C26.7865 18.5913 26.4604 18.7953 26.1848 19.0579C25.9092 19.3205 25.6897 19.6364 25.5398 19.9863C25.3899 20.3363 25.3125 20.713 25.3125 21.0938V23.8588C25.3174 24.2217 25.1847 24.573 24.9411 24.842C24.6975 25.1111 24.361 25.2779 23.9994 25.309C23.807 25.3218 23.6141 25.2948 23.4326 25.2299C23.2511 25.165 23.0849 25.0634 22.9442 24.9315C22.8036 24.7997 22.6916 24.6403 22.6152 24.4633C22.5388 24.2863 22.4996 24.0955 22.5 23.9027V11.3291C22.5 9.81562 21.3363 8.5166 19.8228 8.44102C19.4426 8.42269 19.0625 8.48177 18.7058 8.61466C18.349 8.74756 18.0229 8.9515 17.7473 9.21414C17.4717 9.47678 17.2522 9.79264 17.1023 10.1426C16.9524 10.4925 16.875 10.8693 16.875 11.25V32.298C16.8793 32.6381 16.763 32.9688 16.5468 33.2313C16.3305 33.4939 16.0283 33.6714 15.6937 33.7324H15.6726C15.4629 33.756 15.2508 33.7169 15.0632 33.6203C14.8755 33.5237 14.7206 33.3737 14.618 33.1893L10.9266 26.7838C10.1707 25.4725 8.51132 24.9258 7.16483 25.6201C6.82459 25.7932 6.52313 26.0336 6.27882 26.3269C6.0345 26.6202 5.85245 26.9602 5.74374 27.3261C5.63504 27.692 5.60196 28.0762 5.64652 28.4553C5.69107 28.8344 5.81234 29.2005 6.00292 29.5312L11.4433 40.0869C11.5675 40.2983 11.7447 40.4736 11.9574 40.5954C12.1702 40.7172 12.4111 40.7813 12.6562 40.7812H36.5625C36.8237 40.7814 37.0799 40.7088 37.3022 40.5716C37.5245 40.4344 37.7042 40.2379 37.8211 40.0043C37.8844 39.8777 39.375 37.357 39.375 32.8588V23.9062C39.3754 23.5252 39.2984 23.1481 39.1487 22.7977C38.999 22.4474 38.7796 22.1311 38.504 21.8681C38.2283 21.6051 37.9021 21.4008 37.545 21.2677C37.188 21.1346 36.8077 21.0754 36.4271 21.0938Z" fill="white"/>
</svg>
