<svg width="26" height="26" viewBox="0 0 26 26" fill="none" xmlns="http://www.w3.org/2000/svg">
<path d="M24.9911 2.33067C25.4723 2.81183 25.4723 3.59194 24.9911 4.07309L16.5638 12.5005L13.5279 9.46454L21.9552 1.03717C22.4364 0.556018 23.2165 0.556018 23.6976 1.03717L24.9911 2.33067ZM13.0228 9.96961L16.0587 13.0055L13.0228 16.0414L9.98686 13.0055L13.0228 9.96961ZM13.5279 16.5465L16.5638 13.5106L24.9911 21.938C25.4723 22.4191 25.4723 23.1992 24.9911 23.6804L23.6976 24.9739C23.2165 25.455 22.4364 25.455 21.9552 24.9739L13.5279 16.5465ZM9.48178 13.5106L12.5177 16.5465L4.09034 24.9739C3.60919 25.455 2.82908 25.455 2.34792 24.9739L1.05442 23.6804C0.573266 23.1992 0.573266 22.4191 1.05442 21.938L9.48178 13.5106ZM9.48178 12.5005L1.05442 4.07309C0.573261 3.59194 0.573261 2.81183 1.05442 2.33068L2.34792 1.03717C2.82907 0.556018 3.60918 0.556018 4.09033 1.03717L12.5177 9.46454L9.48178 12.5005Z" fill="white" stroke="white" stroke-width="0.714286"/>
</svg>
