<svg width="45" height="44" viewBox="0 0 45 44" fill="none" xmlns="http://www.w3.org/2000/svg">
<g clip-path="url(#clip0_2_4136)">
<path d="M35.0634 9.89258C31.8642 6.2832 27.2089 4 21.9999 4C12.3339 4 4.49994 11.834 4.49994 21.5H8.87494C8.87494 14.2471 14.747 8.375 21.9999 8.375C25.999 8.375 29.5468 10.1865 31.9462 13.0098L27.831 17.125H39.4999V5.45605L35.0634 9.89258ZM21.9999 34.625C18.0009 34.625 14.4531 32.8135 12.0536 29.9902L16.1689 25.875H4.49994V37.5439L8.93646 33.1074C12.1357 36.7168 16.7978 39 21.9999 39C31.666 39 39.4999 31.166 39.4999 21.5H35.1249C35.1249 28.7529 29.2529 34.625 21.9999 34.625Z" fill="white"/>
</g>
<defs>
<clipPath id="clip0_2_4136">
<rect width="35" height="35" fill="white" transform="translate(4.49994 4)"/>
</clipPath>
</defs>
</svg>
